<?xml version="1.0" encoding="UTF-8" standalone="no"?>
<!-- Created with Inkscape (http://www.inkscape.org/) -->

<svg
   width="1.3151896in"
   height="1.1408632in"
   viewBox="0 0 33.405816 28.977925"
   version="1.1"
   id="svg1"
   inkscape:version="1.3 (0e150ed, 2023-07-21)"
   sodipodi:docname="icons.svg"
   xml:space="preserve"
   xmlns:inkscape="http://www.inkscape.org/namespaces/inkscape"
   xmlns:sodipodi="http://sodipodi.sourceforge.net/DTD/sodipodi-0.dtd"
   xmlns="http://www.w3.org/2000/svg"
   xmlns:svg="http://www.w3.org/2000/svg"><sodipodi:namedview
     id="namedview1"
     pagecolor="#ffffff"
     bordercolor="#000000"
     borderopacity="0.25"
     inkscape:showpageshadow="2"
     inkscape:pageopacity="0.0"
     inkscape:pagecheckerboard="0"
     inkscape:deskcolor="#d1d1d1"
     inkscape:document-units="mm"
     inkscape:zoom="1.28"
     inkscape:cx="149.60938"
     inkscape:cy="214.45313"
     inkscape:window-width="1984"
     inkscape:window-height="1212"
     inkscape:window-x="71"
     inkscape:window-y="33"
     inkscape:window-maximized="0"
     inkscape:current-layer="layer1" /><defs
     id="defs1" /><g
     inkscape:label="Layer 1"
     inkscape:groupmode="layer"
     id="layer1"
     transform="translate(-56.888458,-39.856171)"><rect
       style="fill:#1f2937;fill-opacity:1;stroke:#000000;stroke-width:0.399999;stroke-dasharray:none;stroke-opacity:1"
       id="rect7"
       width="114.49152"
       height="77.118645"
       x="16.66258"
       y="17.252266" /><path
       style="fill:none;stroke:currentColor;stroke-width:0.4;stroke-dasharray:none;stroke-opacity:1"
       d="m 65.033207,52.189593 17.79453,0.0524 -0.05128,8.49427 c -0.102558,5.26959 -4.972679,7.89283 -8.948546,7.89783 -3.975866,0.005 -8.69214,-2.75931 -8.743421,-7.89783 z"
       id="path5"
       sodipodi:nodetypes="ccczcc" /><path
       style="fill:none;stroke:currentColor;stroke-width:0.4;stroke-dasharray:none;stroke-opacity:1"
       d="m 65.033495,51.592435 8.564696,-0.003 0.0032,-0.90937 c -0.667373,-0.0556 -1.678424,-0.85693 -1.696962,-1.65406 l -0.02435,-4.10148 c 0.01854,-0.8713 0.958073,-1.57037 1.699599,-1.58891 l 0.01535,-3.27789 c -4.819915,0.0371 -8.496905,4.21887 -8.533981,7.83381 z"
       id="path6"
       sodipodi:nodetypes="ccccccccc" /><rect
       style="fill:none;stroke:currentColor;stroke-width:0.4;stroke-dasharray:none;stroke-opacity:1"
       id="rect6"
       width="2.5953391"
       height="6.0619707"
       x="72.632416"
       y="43.935387"
       rx="1.3592232"
       ry="1.2293233" /><path
       style="fill:none;stroke:currentColor;stroke-width:0.4;stroke-dasharray:none;stroke-opacity:1"
       d="m 82.827545,51.592435 -8.564696,-0.003 -0.0032,-0.90937 c 0.667373,-0.0556 1.678424,-0.85693 1.696962,-1.65406 l 0.02435,-4.10148 c -0.01854,-0.8713 -0.958073,-1.57037 -1.699599,-1.58891 l -0.01535,-3.27789 c 4.819915,0.0371 8.496905,4.21887 8.533981,7.83381 z"
       id="path7"
       sodipodi:nodetypes="ccccccccc" /><g
       style="fill:currentColor;fill-opacity:1;stroke:none;stroke-opacity:1"
       id="g9"
       transform="matrix(0.26458333,0,0,0.26458333,42.522643,44.096056)"><path
         fill-rule="evenodd"
         d="m 65.28813,-8.7252855 a 0.71873219,0.71873219 0 0 1 1.017727,0 l 2.87493,2.874928 a 0.71964141,0.71964141 0 0 1 -1.017726,1.017725 l -1.647334,-1.648772 v 5.452305 a 0.71873319,0.71873319 0 0 1 -1.437462,0 v -5.452305 l -1.647338,1.648772 a 0.71964063,0.71964063 0 1 1 -1.017719,-1.017725 z m 0.508866,14.164774 a 0.71873219,0.71873219 0 0 1 0.718731,0.718732 v 5.4523045 l 1.647334,-1.6487725 a 0.71964164,0.71964164 0 0 1 1.017726,1.0177275 l -2.87493,2.874928 a 0.71873219,0.71873219 0 0 1 -1.017727,0 L 62.413208,10.97948 a 0.71964023,0.71964023 0 0 1 1.017719,-1.0177275 l 1.647338,1.6487725 V 6.1582205 a 0.71873219,0.71873219 0 0 1 0.718731,-0.718732 M 54.507147,3.0734225 a 0.71873219,0.71873219 0 0 1 0,-1.017725 l 2.874935,-2.87492798 a 0.71964113,0.71964113 0 1 1 1.017725,1.017724 L 56.751032,1.8458265 h 5.4523 a 0.71873343,0.71873343 0 0 1 0,1.437466 h -5.4523 l 1.648775,1.647333 a 0.71964166,0.71964166 0 0 1 -1.017725,1.017726 z m 14.16478,-0.508861 a 0.71873219,0.71873219 0 0 1 0.718726,-0.718735 h 5.452306 L 73.194187,0.19849352 a 0.71964133,0.71964133 0 0 1 1.017722,-1.017724 l 2.87493,2.87492798 a 0.71873219,0.71873219 0 0 1 0,1.017725 l -2.87493,2.874929 a 0.71964183,0.71964183 0 0 1 -1.017722,-1.017726 l 1.648772,-1.647333 h -5.452306 a 0.71873219,0.71873219 0 0 1 -0.718726,-0.718731"
         id="path1-3"
         style="fill:currentColor;fill-opacity:1;stroke:none;stroke-width:1;stroke-opacity:1" /></g><g
       style="fill:currentColor;fill-opacity:1;stroke-width:0.695639"
       id="g10"
       transform="matrix(0.38034561,0,0,0.38034561,84.208854,41.575728)"><path
         fill-rule="evenodd"
         d="m 6.5,12 a 5.5,5.5 0 1 0 0,-11 5.5,5.5 0 0 0 0,11 M 13,6.5 a 6.5,6.5 0 1 1 -13,0 6.5,6.5 0 0 1 13,0"
         id="path1-7"
         style="fill:currentColor;fill-opacity:1;stroke-width:0.695639" /><path
         d="m 10.344,11.742 c 0.03,0.04 0.062,0.078 0.098,0.115 l 3.85,3.85 a 1.0002026,1.0002026 0 0 0 1.415,-1.414 l -3.85,-3.85 a 1.007,1.007 0 0 0 -0.115,-0.1 6.538,6.538 0 0 1 -1.398,1.4 z"
         id="path2-5"
         style="fill:currentColor;fill-opacity:1;stroke-width:0.695639" /><path
         fill-rule="evenodd"
         d="M 6.5,3 A 0.5,0.5 0 0 1 7,3.5 V 6 h 2.5 a 0.5,0.5 0 0 1 0,1 H 7 v 2.5 a 0.5,0.5 0 0 1 -1,0 V 7 H 3.5 a 0.5,0.5 0 0 1 0,-1 H 6 V 3.5 A 0.5,0.5 0 0 1 6.5,3"
         id="path3-7"
         style="fill:currentColor;fill-opacity:1;stroke-width:0.695639" /></g><path
       style="fill:none;fill-opacity:1;stroke:currentColor;stroke-width:0.4;stroke-linecap:round;stroke-dasharray:none;stroke-opacity:1"
       d="m 63.975424,44.803468 4.960936,1.395263"
       id="path10"
       sodipodi:nodetypes="cc" /><path
       style="fill:none;fill-opacity:1;stroke:currentColor;stroke-width:0.4;stroke-linecap:round;stroke-dasharray:none;stroke-opacity:1"
       d="m 83.509115,44.131675 -9.301759,2.73885"
       id="path11"
       sodipodi:nodetypes="cc" /></g></svg>
